PathFileType	4	(X/Y/Z)	Patient4_TMGait_0pt4_03_left_39.trc.trc
DataRate	CameraRate	NumFrames	NumMarkers	Units	OrigDataRate	OrigDataStartFrame	OrigNumFrames
79.545454545454	79.545454545454	5	33	mm	79.545454545454	89	       141
Frame#	Time	Sacral			L.Shoulder			Chest			R.Shoulder			Neck			R.ASIS			L.ASIS			R.Thigh.Superior			R.Thigh.Lateral			R.Thigh.Inferior			R.Patella			L.Thigh.Superior			L.Thigh.Lateral			L.Thigh.Inferior			L.Patella			L.Shank.Superior			L.Shank.Lateral			L.Shank.Inferior			R.Shank.Superior			R.Shank.Lateral			R.Shank.Inferior			R.Heel			R.Midfoot.Superior			R.Midfoot.Lateral			R.Toe			L.Heel			L.Midfoot.Lateral			L.Midfoot.Superior			L.Toe			L.Elbow			L.Wrist			R.Elbow			R.Wrist			
		X1	Y1	Z1	X2	Y2	Z2	X3	Y3	Z3	X4	Y4	Z4	X5	Y5	Z5	X6	Y6	Z6	X7	Y7	Z7	X8	Y8	Z8	X9	Y9	Z9	X10	Y10	Z10	X11	Y11	Z11	X12	Y12	Z12	X13	Y13	Z13	X14	Y14	Z14	X15	Y15	Z15	X16	Y16	Z16	X17	Y17	Z17	X18	Y18	Z18	X19	Y19	Z19	X20	Y20	Z20	X21	Y21	Z21	X22	Y22	Z22	X23	Y23	Z23	X24	Y24	Z24	X25	Y25	Z25	X26	Y26	Z26	X27	Y27	Z27	X28	Y28	Z28	X29	Y29	Z29	X30	Y30	Z30	X31	Y31	Z31	X32	Y32	Z32	X33	Y33	Z33	

89	52.836285714286	885.680229176765	1001.599166727745	509.981899843806	1068.527039769776	1434.779347331064	344.160495845308	1161.636504798818	1365.849955713178	510.786516271551	1065.250904678374	1433.090660043451	680.650088477916	1039.980551611593	1494.760884323918	501.954850844147	1112.052917776879	942.291310479816	638.990544046304	1107.096354960462	961.218313757892	363.702817570190	1166.448225703330	747.543579172178	614.520300049584	1090.343355978238	635.883967532964	673.326608460206	1174.226645377308	588.273303173296	596.523800986351	1179.495098058395	501.864138586530	604.816905798220	1152.826476669583	745.242536485645	386.071118293037	1070.576476396498	629.024508714380	312.960286106777	1158.723642653922	548.000159486461	369.784779703415	1155.493206503067	465.385412447111	367.409963547743	1095.770468750945	401.921072146944	358.940468077266	964.764182977570	339.964951337379	304.183936316417	967.742463605406	211.726441585640	362.094518272718	1157.228132754527	410.913862601579	613.019556714627	1089.795311423794	303.873868666508	674.572760558062	1141.381716269605	211.165142267756	613.901073602958	1018.771704751672	42.331436225938	582.976723459779	1188.562215322907	99.469747932502	616.076061512427	1103.498530156964	36.453104113311	656.821086334167	1310.603510471470	50.560684794109	640.919419638999	790.537201379860	108.573519370178	396.865750250055	855.365002761082	85.708381985112	312.875796449306	955.131445695652	118.047157981802	336.930057157256	1057.520104963220	35.983097794215	296.898063730503	1092.271243908418	1088.177936825883	213.431087929298	1303.184932160773	933.502436524877	210.839486484294	1006.089638300823	1083.404652038836	784.586043631608	1074.996346650952	830.722368776991	782.890996662335	
90	52.848857142857	885.570470984911	1002.070457804700	513.211788013155	1067.236055235002	1435.264172920230	346.401938045223	1161.668924570586	1366.205977856909	512.227246582983	1066.795172082034	1433.363587207484	682.901359347576	1040.149920666432	1495.213411452691	504.480533370825	1112.687986031482	942.945967137422	640.610913851450	1106.801593702336	961.968472433529	365.059524419815	1165.235518269550	747.272387629816	616.460788308945	1088.157866412661	635.978322798085	675.169869347479	1171.666535191434	587.832632041744	598.338725398823	1176.235140561762	501.471855868533	606.396203666929	1156.519088841481	748.397872092204	387.745648756941	1078.612437619894	630.315998652520	313.909285278530	1169.039590642708	551.216806012695	370.545212759221	1167.102625641675	467.612685481770	367.593445451576	1105.928642481399	403.778377640112	359.430089408548	973.059200401078	345.235317029762	304.989301208883	972.923095321709	216.821487396519	362.669520954956	1153.542831886512	410.664396952031	614.425007202514	1085.578956541646	303.775020452746	675.581339169896	1136.864241010868	211.028563062938	614.643201605263	1013.804917107294	42.300655342573	583.195555381864	1183.662056130807	99.464301334155	616.570449824512	1098.559651211733	36.374333112886	657.053563320984	1305.633191151978	50.674149884525	641.108951433294	792.449040643672	119.134535285175	397.328414245341	856.682642024026	94.202092323009	313.320838104373	957.827946517175	122.748909226004	337.511372520638	1057.123442186969	36.433057469691	297.480015808506	1088.734120627848	1087.360777658362	218.177961184228	1292.554615801981	922.826749860935	214.147440607395	1015.735881355850	1082.361588853536	788.244556314501	1093.878498397167	832.364918951085	786.452088621810	
91	52.861428571429	885.393864273074	1002.517222825918	516.290212280459	1065.754541820170	1435.680119957783	348.442474323862	1161.610904839640	1366.555344126382	513.419356598705	1068.356922815682	1433.640139185942	684.954563200720	1040.265579352092	1495.634938087021	506.807067595499	1113.218563152316	943.555893972887	642.073723620724	1106.383247447745	962.693649305938	366.318624037451	1163.821881132039	746.934318203963	618.223769187943	1085.786731479163	636.015376382963	676.843854202499	1168.925498661285	587.353285541250	599.992207469655	1172.782485686332	501.068100129996	607.804114348039	1159.968918871922	751.629450003216	389.210026898441	1086.264698106045	631.937167673213	314.582822824993	1178.747354591771	554.780285199971	371.098354454680	1178.193102901411	470.364492430166	367.634960462749	1115.961705332111	406.010344107853	359.689675358804	981.589927842415	350.184690983613	305.602353537800	979.025602462438	221.609827145609	363.054882403026	1149.715191619397	410.412222346702	615.657601487595	1081.272591112658	303.655256418848	676.442591791513	1132.267105257438	210.878231326936	615.259387210306	1008.779098602868	42.289516252939	583.365243458261	1178.713439868959	99.380307502526	616.992321199963	1093.549321423947	36.306383957859	657.236711697211	1300.601892887701	50.689571474356	641.276512710135	796.012291492523	128.340561387715	397.682055765858	859.749746881698	101.763567108173	313.636121325612	961.982872312318	127.200920136920	337.939004796765	1058.730224438491	37.276402496623	297.880981249359	1084.772018204360	1086.512508691353	222.688115005007	1280.904255750212	912.331679742790	217.267019663051	1025.611827541274	1081.603971462695	791.887505529986	1113.171476820257	834.738558860366	789.745564864194	
92	52.874000000000	885.160454332517	1002.939232609525	519.191091587909	1064.166371096201	1436.023021928829	350.272527433083	1161.502075248340	1366.889637020231	514.376732961666	1069.941786212128	1433.931926384065	686.797413235706	1040.362970767488	1496.025921934724	508.910331920572	1113.633997896936	944.109809710267	643.419326708530	1105.787496196520	963.348905841828	367.551380944512	1162.264364151206	746.548704019066	619.785349734858	1083.338071481697	636.017751071710	678.351230680674	1166.070059299141	586.849670000966	601.450790705659	1169.207764691227	500.665499099765	609.022320303049	1163.107869877132	754.878534205149	390.489102933647	1093.345049396565	633.850051396738	315.027291253382	1187.676659767807	558.615783697968	371.437411278486	1188.593081793962	473.581116836017	367.519444906477	1125.745303752980	408.563214797550	359.705442655693	990.284305313600	354.588496730794	305.984923079723	986.159879069126	225.828160379450	363.173834310140	1145.817476124298	410.159552774525	616.700325032933	1076.958152534262	303.521981777866	677.162103509209	1127.640687498455	210.714826484612	615.743693327648	1003.712509846405	42.295945152384	583.499525117580	1173.726230402442	99.241862305095	617.330512804765	1088.485504311321	36.253673633403	657.380228483997	1295.530018020082	50.619107372857	641.428146169572	801.448444769166	135.625987511444	397.820938542937	864.829732800061	107.905215377625	313.724390453056	967.831728207936	131.103018956841	338.101011211257	1062.742336158628	38.432851629236	297.992744603022	1080.330102491812	1085.629867208607	226.958941749187	1268.244712619608	902.148743086080	220.167021965542	1035.643043215940	1081.160479691475	795.477496763032	1132.803090833502	837.917886004923	792.721219466141	
93	52.886571428571	884.876014305365	1003.338758150662	521.902724147178	1062.557881197782	1436.291233740552	351.888447841267	1161.383084610638	1367.198347928601	515.119274194874	1071.557101185014	1434.250872618713	688.421934248534	1040.478491436774	1496.388363507555	510.772728427727	1113.928873418815	944.596174160588	644.679988829604	1104.975867585087	963.909199598244	368.811651163483	1160.622049063654	746.130779615460	621.127314913847	1080.898828444824	636.001409157274	679.690565088099	1163.154525760878	586.332784447325	602.683205233606	1165.571230759224	500.271012503665	610.026781344721	1165.882585392898	758.098669106003	391.615032829358	1099.709998017958	636.001890485325	315.296387397913	1195.714197799492	562.641036305890	371.561914208070	1198.180543057405	477.193606593515	367.240265019039	1135.195199757202	411.374165567689	359.474167456521	999.108943641273	358.246552204066	306.101719792978	994.439694939854	229.251261166811	362.956377489531	1141.911019913353	409.905473638787	617.536606754877	1072.702990322402	303.380496414611	677.741557202807	1123.028054954255	210.538582650908	616.090118251132	998.624987757231	42.315494971333	583.608651468778	1168.712730608953	99.071517541201	617.581733192714	1083.387165874141	36.218210673935	657.491291624964	1290.437977352802	50.478474847211	641.568819230812	808.950615191670	140.547667212625	397.640367641376	872.147134010141	112.238073877078	313.488371352413	975.591319778273	134.184805262903	337.895330709916	1069.490437200699	39.786205306548	297.717267013244	1075.362109006605	1084.716714302777	230.999144676462	1254.594604516917	892.387902874902	222.820825275770	1045.747393860123	1081.051730723329	798.975671247331	1152.700554920026	841.979525344606	795.331495540718	
